<svg xmlns="http://www.w3.org/2000/svg" xml:space="preserve" viewBox="0 0 512 512">
  <g fill="none" transform="translate(13 13)">
    <rect width="486" height="486" fill="#3e3f44" rx="106.3"/>
    <path fill="#5ac1fe" d="M71 77c28 49 61 97 86 147l18 36c1 4 5 10 2 14-8 12-73-39-83-42q12 16 26 31c26 30 67 63 84 85 22 26 42 57 76 69 49 18 104-3 129-48a111 111 0 0 0 10-77c-10-36-37-56-65-78l-77-59-41-31q-10-10-22-17c0 9 53 69 43 73-8 3-38-15-45-19m30 161c-6-51 49-89 95-76 32 9 51 36 54 67 6 54-51 93-100 76-29-10-46-37-49-67"/>
    <rect width="451.8" height="451.8" x="17" y="17" stroke="#5ac1fe" stroke-width="8" rx="98.7"/>
  </g>
</svg>