<svg width="16" height="16" viewBox="0 0 16 16" fill="none" xmlns="http://www.w3.org/2000/svg">
  <path d="M8 10.2a2.2 2.2 0 1 0 0-4.4 2.2 2.2 0 0 0 0 4.4Z" stroke="currentColor" stroke-width="1.2" stroke-linecap="round" stroke-linejoin="round" />
  <path d="M8 12.8a4.8 4.8 0 1 0 0-9.6 4.8 4.8 0 0 0 0 9.6Z" stroke="currentColor" stroke-width="1.2" stroke-linecap="round" stroke-linejoin="round" />
  <path d="M8 1.6V3" stroke="currentColor" stroke-width="1.2" stroke-linecap="round" />
  <path d="M8 13V14.4" stroke="currentColor" stroke-width="1.2" stroke-linecap="round" />
  <path d="M1.6 8H3" stroke="currentColor" stroke-width="1.2" stroke-linecap="round" />
  <path d="M13 8H14.4" stroke="currentColor" stroke-width="1.2" stroke-linecap="round" />
  <path d="M3.1 3.1L4.1 4.1" stroke="currentColor" stroke-width="1.2" stroke-linecap="round" />
  <path d="M11.9 11.9L12.9 12.9" stroke="currentColor" stroke-width="1.2" stroke-linecap="round" />
  <path d="M12.9 3.1L11.9 4.1" stroke="currentColor" stroke-width="1.2" stroke-linecap="round" />
  <path d="M4.1 11.9L3.1 12.9" stroke="currentColor" stroke-width="1.2" stroke-linecap="round" />
</svg>

